<svg width="20" height="20" viewBox="0 0 20 20" fill="none" xmlns="http://www.w3.org/2000/svg">
<g id="bed-king-outline">
<path id="Vector" d="M16.6667 8.33329V5.83329C16.6667 5.39127 16.4911 4.96734 16.1785 4.65478C15.8659 4.34222 15.442 4.16663 15 4.16663H4.99999C4.55796 4.16663 4.13404 4.34222 3.82148 4.65478C3.50892 4.96734 3.33332 5.39127 3.33332 5.83329V8.33329C2.8913 8.33329 2.46737 8.50889 2.15481 8.82145C1.84225 9.13401 1.66666 9.55793 1.66666 9.99996V14.1666H2.77499L3.33332 15.8333H4.16666L4.72499 14.1666H15.275L15.8333 15.8333H16.6667L17.225 14.1666H18.3333V9.99996C18.3333 9.55793 18.1577 9.13401 17.8452 8.82145C17.5326 8.50889 17.1087 8.33329 16.6667 8.33329ZM10.8333 5.83329H15V8.33329H10.8333M4.99999 5.83329H9.16666V8.33329H4.99999M16.6667 12.5H3.33332V9.99996H16.6667V12.5Z" fill="#737D8C"/>
</g>
</svg>
