<svg width="20" height="20" viewBox="0 0 20 20" fill="none" xmlns="http://www.w3.org/2000/svg">
<g id="shower">
<path id="Vector" d="M17.5 11.6666V12.5C17.5 14.0916 16.6083 15.475 15.2917 16.175L15.8333 18.3333H14.1667L13.75 16.6666C13.6083 16.6666 13.475 16.6666 13.3333 16.6666H6.66666C6.52499 16.6666 6.39166 16.6666 6.24999 16.6666L5.83332 18.3333H4.16666L4.70832 16.175C3.39166 15.475 2.49999 14.0916 2.49999 12.5V11.6666H1.66666V9.99996H16.6667V4.16663C16.6667 3.94561 16.5789 3.73365 16.4226 3.57737C16.2663 3.42109 16.0543 3.33329 15.8333 3.33329C15.4167 3.33329 15.1 3.61663 15 3.99163C15.525 4.44163 15.8333 5.10829 15.8333 5.83329H10.8333C10.8333 5.17025 11.0967 4.53437 11.5656 4.06553C12.0344 3.59668 12.6703 3.33329 13.3333 3.33329C13.3833 3.33329 13.425 3.33329 13.475 3.33329C13.8167 2.36663 14.7417 1.66663 15.8333 1.66663C16.4964 1.66663 17.1322 1.93002 17.6011 2.39886C18.0699 2.8677 18.3333 3.50358 18.3333 4.16663V11.6666H17.5ZM15.8333 11.6666H4.16666V12.5C4.16666 13.163 4.43005 13.7989 4.89889 14.2677C5.36773 14.7366 6.00362 15 6.66666 15H13.3333C13.9964 15 14.6322 14.7366 15.1011 14.2677C15.5699 13.7989 15.8333 13.163 15.8333 12.5V11.6666Z" fill="#737D8C"/>
</g>
</svg>
